<svg xmlns="http://www.w3.org/2000/svg" viewBox="0 0 1600 900" role="img" aria-label="Grafo dinâmico">
  <defs>
    <radialGradient id="bg" cx="0.2" cy="0.2" r="0.8">
      <stop offset="0%" stop-color="#151b2f"/>
      <stop offset="70%" stop-color="#0b0b10"/>
      <stop offset="100%" stop-color="#050507"/>
    </radialGradient>
  </defs>
  <rect width="1600" height="900" fill="url(#bg)"/>
  <g stroke="#2a3448" stroke-width="2" opacity="0.8">
    <line x1="220" y1="200" x2="520" y2="260"/>
    <line x1="220" y1="200" x2="420" y2="520"/>
    <line x1="520" y1="260" x2="760" y2="160"/>
    <line x1="520" y1="260" x2="840" y2="420"/>
    <line x1="420" y1="520" x2="840" y2="420"/>
    <line x1="840" y1="420" x2="1100" y2="300"/>
    <line x1="840" y1="420" x2="1120" y2="620"/>
    <line x1="1100" y1="300" x2="1340" y2="220"/>
    <line x1="1100" y1="300" x2="1380" y2="460"/>
    <line x1="1120" y1="620" x2="1380" y2="460"/>
  </g>
  <g>
    <circle cx="220" cy="200" r="16" fill="#38bdf8"/>
    <circle cx="520" cy="260" r="22" fill="#f97316"/>
    <circle cx="760" cy="160" r="14" fill="#22c55e"/>
    <circle cx="420" cy="520" r="18" fill="#a855f7"/>
    <circle cx="840" cy="420" r="26" fill="#facc15"/>
    <circle cx="1100" cy="300" r="20" fill="#fb7185"/>
    <circle cx="1120" cy="620" r="16" fill="#60a5fa"/>
    <circle cx="1340" cy="220" r="12" fill="#14b8a6"/>
    <circle cx="1380" cy="460" r="18" fill="#e879f9"/>
  </g>
  <g opacity="0.35">
    <circle cx="1180" cy="520" r="120" fill="#38bdf8"/>
    <circle cx="520" cy="680" r="90" fill="#f97316"/>
  </g>
</svg>
