<svg xmlns="http://www.w3.org/2000/svg" viewBox="0 0 800 600" role="img" aria-label="Textura imobiliaria">
  <defs>
    <linearGradient id="bg" x1="0" y1="0" x2="1" y2="1">
      <stop offset="0%" stop-color="#0b0f17"/>
      <stop offset="100%" stop-color="#0a0a0c"/>
    </linearGradient>
    <linearGradient id="pane" x1="0" y1="0" x2="0" y2="1">
      <stop offset="0%" stop-color="#1f2937"/>
      <stop offset="100%" stop-color="#0f172a"/>
    </linearGradient>
  </defs>
  <rect width="800" height="600" fill="url(#bg)"/>
  <g opacity="0.9">
    <rect x="80" y="80" width="220" height="440" rx="16" fill="#0f172a" stroke="#1f2937"/>
    <rect x="320" y="120" width="180" height="400" rx="14" fill="#0b1220" stroke="#1e293b"/>
    <rect x="520" y="60" width="200" height="460" rx="16" fill="#0f172a" stroke="#1f2937"/>
  </g>
  <g fill="url(#pane)">
    <rect x="110" y="120" width="60" height="60" rx="8"/>
    <rect x="190" y="120" width="60" height="60" rx="8"/>
    <rect x="110" y="200" width="60" height="60" rx="8"/>
    <rect x="190" y="200" width="60" height="60" rx="8"/>
    <rect x="110" y="280" width="60" height="60" rx="8"/>
    <rect x="190" y="280" width="60" height="60" rx="8"/>
    <rect x="350" y="160" width="50" height="50" rx="7"/>
    <rect x="410" y="160" width="50" height="50" rx="7"/>
    <rect x="350" y="230" width="50" height="50" rx="7"/>
    <rect x="410" y="230" width="50" height="50" rx="7"/>
    <rect x="560" y="110" width="60" height="60" rx="8"/>
    <rect x="640" y="110" width="60" height="60" rx="8"/>
    <rect x="560" y="190" width="60" height="60" rx="8"/>
    <rect x="640" y="190" width="60" height="60" rx="8"/>
    <rect x="560" y="270" width="60" height="60" rx="8"/>
    <rect x="640" y="270" width="60" height="60" rx="8"/>
  </g>
</svg>
