<svg xmlns="http://www.w3.org/2000/svg" width="1200" height="900" viewBox="0 0 1200 900">
  <defs>
    <radialGradient id="rg" cx="20%" cy="20%" r="70%">
      <stop offset="0%" stop-color="#5b5b7a" stop-opacity="0.9"/>
      <stop offset="60%" stop-color="#121218" stop-opacity="0.8"/>
      <stop offset="100%" stop-color="#050506" stop-opacity="1"/>
    </radialGradient>
    <linearGradient id="lg" x1="0" x2="1" y1="0" y2="1">
      <stop offset="0%" stop-color="#1f2937" stop-opacity="0.8"/>
      <stop offset="100%" stop-color="#0a0a0a" stop-opacity="0.95"/>
    </linearGradient>
  </defs>
  <rect width="1200" height="900" fill="url(#rg)"/>
  <g stroke="#7c7c8a" stroke-opacity="0.4" fill="none">
    <path d="M80 740 C220 560, 380 520, 520 360 C640 220, 860 180, 1120 260" stroke-width="2"/>
    <path d="M40 640 C180 520, 360 460, 520 260 C700 40, 980 80, 1160 200" stroke-width="1.5"/>
    <path d="M100 820 C260 680, 460 640, 660 520 C820 420, 980 420, 1120 520" stroke-width="1.5"/>
  </g>
  <g fill="url(#lg)" opacity="0.6">
    <circle cx="260" cy="280" r="120"/>
    <circle cx="520" cy="180" r="80"/>
    <circle cx="820" cy="320" r="140"/>
  </g>
  <g fill="#d4d4d8" opacity="0.7">
    <circle cx="260" cy="280" r="4"/>
    <circle cx="520" cy="180" r="4"/>
    <circle cx="820" cy="320" r="4"/>
  </g>
</svg>
