<svg xmlns="http://www.w3.org/2000/svg" width="1200" height="630" viewBox="0 0 1200 630">
  <defs>
    <linearGradient id="bg" x1="0" y1="0" x2="1" y2="1">
      <stop offset="0%" stop-color="#05060a"/>
      <stop offset="100%" stop-color="#111827"/>
    </linearGradient>
    <linearGradient id="line" x1="0" y1="0" x2="1" y2="0">
      <stop offset="0%" stop-color="#22d3ee"/>
      <stop offset="55%" stop-color="#f59e0b"/>
      <stop offset="100%" stop-color="#fb7185"/>
    </linearGradient>
  </defs>
  <rect x="0" y="0" width="1200" height="630" fill="url(#bg)"/>
  <g opacity="0.2" stroke="#1f2937">
    <path d="M0 90 H1200"/>
    <path d="M0 180 H1200"/>
    <path d="M0 270 H1200"/>
    <path d="M0 360 H1200"/>
    <path d="M0 450 H1200"/>
    <path d="M0 540 H1200"/>
  </g>
  <rect x="70" y="70" width="1060" height="490" rx="32" fill="rgba(5,8,15,0.65)" stroke="#1f2937"/>
  <path d="M130 450 C 300 360, 430 390, 560 320 C 700 240, 820 270, 940 210 C 1000 182, 1060 180, 1100 170" fill="none" stroke="url(#line)" stroke-width="6"/>
  <circle cx="560" cy="320" r="8" fill="#f59e0b"/>
  <circle cx="940" cy="210" r="8" fill="#fb7185"/>
  <text x="130" y="160" fill="#e5e7eb" font-family="Arial, Helvetica, sans-serif" font-size="56" font-weight="700">
    Assyntrax Motor de Regime
  </text>
  <text x="130" y="218" fill="#9ca3af" font-family="Arial, Helvetica, sans-serif" font-size="30">
    Diagnostico de regime e risco estrutural com gate auditavel
  </text>
  <text x="130" y="510" fill="#94a3b8" font-family="Arial, Helvetica, sans-serif" font-size="24">
    Sem promessa de retorno. Sem recomendacao de compra ou venda.
  </text>
</svg>
